<svg width="22" height="22" viewBox="0 0 22 22" fill="none" xmlns="http://www.w3.org/2000/svg">
<path d="M9.67596 3.03813C9.92828 1.54658 12.0712 1.54658 12.3236 3.03813V3.03813C12.5044 4.10706 13.8121 4.53197 14.5867 3.77347V3.77347C15.6675 2.71509 17.4012 3.97469 16.7286 5.32969V5.32969C16.2466 6.30075 17.0549 7.41317 18.1273 7.25483V7.25483C19.6239 7.03389 20.2861 9.07196 18.9455 9.77284V9.77284C17.9848 10.2751 17.9848 11.6502 18.9455 12.1525V12.1525C20.2861 12.8533 19.6239 14.8914 18.1273 14.6705V14.6705C17.0549 14.5121 16.2466 15.6245 16.7286 16.5956V16.5956C17.4012 17.9506 15.6675 19.2102 14.5867 18.1518V18.1518C13.8121 17.3933 12.5044 17.8182 12.3236 18.8872V18.8872C12.0712 20.3787 9.92828 20.3787 9.67596 18.8872V18.8872C9.49513 17.8182 8.18741 17.3933 7.41282 18.1518V18.1518C6.33197 19.2102 4.59829 17.9506 5.27087 16.5956V16.5956C5.75288 15.6245 4.94466 14.5121 3.87217 14.6705V14.6705C2.37565 14.8914 1.71344 12.8533 3.05402 12.1525V12.1525C4.01475 11.6502 4.01475 10.2751 3.05402 9.77284V9.77284C1.71344 9.07196 2.37565 7.03389 3.87217 7.25483V7.25483C4.94466 7.41317 5.75288 6.30075 5.27087 5.32969V5.32969C4.59829 3.97469 6.33197 2.71509 7.41282 3.77347V3.77347C8.18741 4.53197 9.49513 4.10706 9.67596 3.03813V3.03813Z" fill="#5269A0"/>
<path d="M14.0019 8.94775L10.0604 12.8892L8.2688 11.0977" fill="#5269A0"/>
<path d="M14.0019 8.94775L10.0604 12.8892L8.2688 11.0977" stroke="white" stroke-width="1.5" stroke-linecap="round" stroke-linejoin="round"/>
</svg>
